<?xml version="1.0" encoding="UTF-8" standalone="no"?>
<!DOCTYPE svg PUBLIC "-//W3C//DTD SVG 1.1//EN"
 "http://www.w3.org/Graphics/SVG/1.1/DTD/svg11.dtd">
<!-- Generated by graphviz version 12.2.1 (20241206.2353)
 -->
<!-- Title: Bedrock Pages: 1 -->
<svg width="1334pt" height="620pt"
 viewBox="0.00 0.00 1333.64 620.00" xmlns="http://www.w3.org/2000/svg" xmlns:xlink="http://www.w3.org/1999/xlink">
<g id="graph0" class="graph" transform="scale(1 1) rotate(0) translate(4 616)">
<title>Bedrock</title>
<polygon fill="white" stroke="none" points="-4,4 -4,-616 1329.64,-616 1329.64,4 -4,4"/>
<!-- L00 -->
<g id="node1" class="node">
<title>L00</title>
<path fill="#e8f4ff" stroke="#1f6feb" d="M671.14,-612C671.14,-612 622.54,-612 622.54,-612 616.54,-612 610.54,-606 610.54,-600 610.54,-600 610.54,-588 610.54,-588 610.54,-582 616.54,-576 622.54,-576 622.54,-576 671.14,-576 671.14,-576 677.14,-576 683.14,-582 683.14,-588 683.14,-588 683.14,-600 683.14,-600 683.14,-606 677.14,-612 671.14,-612"/>
<text text-anchor="middle" x="646.84" y="-595.75" font-family="Helvetica,sans-Serif" font-size="10.00">Layer 0</text>
<text text-anchor="middle" x="646.84" y="-584.5" font-family="Helvetica,sans-Serif" font-size="10.00">Stdlib Gaps</text>
</g>
<!-- L01 -->
<g id="node2" class="node">
<title>L01</title>
<path fill="#e8f4ff" stroke="#1f6feb" d="M667.39,-540C667.39,-540 626.29,-540 626.29,-540 620.29,-540 614.29,-534 614.29,-528 614.29,-528 614.29,-516 614.29,-516 614.29,-510 620.29,-504 626.29,-504 626.29,-504 667.39,-504 667.39,-504 673.39,-504 679.39,-510 679.39,-516 679.39,-516 679.39,-528 679.39,-528 679.39,-534 673.39,-540 667.39,-540"/>
<text text-anchor="middle" x="646.84" y="-523.75" font-family="Helvetica,sans-Serif" font-size="10.00">Layer 1</text>
<text text-anchor="middle" x="646.84" y="-512.5" font-family="Helvetica,sans-Serif" font-size="10.00">Primitives</text>
</g>
<!-- L01&#45;&gt;L00 -->
<g id="edge1" class="edge">
<title>L01&#45;&gt;L00</title>
<path fill="none" stroke="#6e7781" d="M646.84,-540.3C646.84,-548.53 646.84,-558.52 646.84,-567.58"/>
<polygon fill="#6e7781" stroke="#6e7781" points="644.39,-567.38 646.84,-574.38 649.29,-567.38 644.39,-567.38"/>
</g>
<!-- L02 -->
<g id="node3" class="node">
<title>L02</title>
<path fill="#e8f4ff" stroke="#1f6feb" d="M487.39,-468C487.39,-468 422.29,-468 422.29,-468 416.29,-468 410.29,-462 410.29,-456 410.29,-456 410.29,-444 410.29,-444 410.29,-438 416.29,-432 422.29,-432 422.29,-432 487.39,-432 487.39,-432 493.39,-432 499.39,-438 499.39,-444 499.39,-444 499.39,-456 499.39,-456 499.39,-462 493.39,-468 487.39,-468"/>
<text text-anchor="middle" x="454.84" y="-451.75" font-family="Helvetica,sans-Serif" font-size="10.00">Layer 2</text>
<text text-anchor="middle" x="454.84" y="-440.5" font-family="Helvetica,sans-Serif" font-size="10.00">Text &amp; Unicode</text>
</g>
<!-- L02&#45;&gt;L01 -->
<g id="edge2" class="edge">
<title>L02&#45;&gt;L01</title>
<path fill="none" stroke="#6e7781" d="M499.68,-466.01C529.84,-476.28 570.42,-490.45 605.84,-504 606.01,-504.07 606.18,-504.13 606.35,-504.2"/>
<polygon fill="#6e7781" stroke="#6e7781" points="605.41,-506.46 612.82,-506.74 607.2,-501.9 605.41,-506.46"/>
</g>
<!-- L03 -->
<g id="node4" class="node">
<title>L03</title>
<path fill="#e8f4ff" stroke="#1f6feb" d="M852.01,-468C852.01,-468 805.66,-468 805.66,-468 799.66,-468 793.66,-462 793.66,-456 793.66,-456 793.66,-444 793.66,-444 793.66,-438 799.66,-432 805.66,-432 805.66,-432 852.01,-432 852.01,-432 858.01,-432 864.01,-438 864.01,-444 864.01,-444 864.01,-456 864.01,-456 864.01,-462 858.01,-468 852.01,-468"/>
<text text-anchor="middle" x="828.84" y="-451.75" font-family="Helvetica,sans-Serif" font-size="10.00">Layer 3</text>
<text text-anchor="middle" x="828.84" y="-440.5" font-family="Helvetica,sans-Serif" font-size="10.00">Collections</text>
</g>
<!-- L03&#45;&gt;L00 -->
<g id="edge3" class="edge">
<title>L03&#45;&gt;L00</title>
<path fill="none" stroke="#6e7781" d="M806.52,-468.41C773.55,-494.14 711.81,-542.31 675.52,-570.62"/>
<polygon fill="#6e7781" stroke="#6e7781" points="674.26,-568.5 670.25,-574.74 677.27,-572.36 674.26,-568.5"/>
</g>
<!-- L03&#45;&gt;L01 -->
<g id="edge4" class="edge">
<title>L03&#45;&gt;L01</title>
<path fill="none" stroke="#6e7781" d="M793.32,-464.66C762.99,-476.33 719.37,-493.1 687.62,-505.31"/>
<polygon fill="#6e7781" stroke="#6e7781" points="686.89,-502.97 681.24,-507.77 688.65,-507.54 686.89,-502.97"/>
</g>
<!-- L07 -->
<g id="node8" class="node">
<title>L07</title>
<path fill="#e8f4ff" stroke="#1f6feb" d="M584.64,-540C584.64,-540 551.04,-540 551.04,-540 545.04,-540 539.04,-534 539.04,-528 539.04,-528 539.04,-516 539.04,-516 539.04,-510 545.04,-504 551.04,-504 551.04,-504 584.64,-504 584.64,-504 590.64,-504 596.64,-510 596.64,-516 596.64,-516 596.64,-528 596.64,-528 596.64,-534 590.64,-540 584.64,-540"/>
<text text-anchor="middle" x="567.84" y="-523.75" font-family="Helvetica,sans-Serif" font-size="10.00">Layer 7</text>
<text text-anchor="middle" x="567.84" y="-512.5" font-family="Helvetica,sans-Serif" font-size="10.00">Hashing</text>
</g>
<!-- L03&#45;&gt;L07 -->
<g id="edge5" class="edge">
<title>L03&#45;&gt;L07</title>
<path fill="none" stroke="#6e7781" d="M793.31,-457.15C750.18,-465.1 675.33,-480.5 604.8,-504.28"/>
<polygon fill="#6e7781" stroke="#6e7781" points="604.37,-501.84 598.54,-506.42 605.96,-506.47 604.37,-501.84"/>
</g>
<!-- L04 -->
<g id="node5" class="node">
<title>L04</title>
<path fill="#e8f4ff" stroke="#1f6feb" d="M147.26,-612C147.26,-612 78.41,-612 78.41,-612 72.41,-612 66.41,-606 66.41,-600 66.41,-600 66.41,-588 66.41,-588 66.41,-582 72.41,-576 78.41,-576 78.41,-576 147.26,-576 147.26,-576 153.26,-576 159.26,-582 159.26,-588 159.26,-588 159.26,-600 159.26,-600 159.26,-606 153.26,-612 147.26,-612"/>
<text text-anchor="middle" x="112.84" y="-595.75" font-family="Helvetica,sans-Serif" font-size="10.00">Layer 4</text>
<text text-anchor="middle" x="112.84" y="-584.5" font-family="Helvetica,sans-Serif" font-size="10.00">Numeric &amp; Math</text>
</g>
<!-- L04&#45;&gt;L00 -->
<g id="edge6" class="edge">
<title>L04&#45;&gt;L00</title>
<path fill="none" stroke="#6e7781" d="M159.58,-583.3C228.41,-568.9 361.06,-546.39 473.84,-558 517.91,-562.54 567.32,-573.41 602.01,-582.03"/>
<polygon fill="#6e7781" stroke="#6e7781" points="601.21,-584.35 608.59,-583.69 602.4,-579.6 601.21,-584.35"/>
</g>
<!-- L05 -->
<g id="node6" class="node">
<title>L05</title>
<path fill="#e8f4ff" stroke="#1f6feb" d="M525.39,-396C525.39,-396 472.29,-396 472.29,-396 466.29,-396 460.29,-390 460.29,-384 460.29,-384 460.29,-372 460.29,-372 460.29,-366 466.29,-360 472.29,-360 472.29,-360 525.39,-360 525.39,-360 531.39,-360 537.39,-366 537.39,-372 537.39,-372 537.39,-384 537.39,-384 537.39,-390 531.39,-396 525.39,-396"/>
<text text-anchor="middle" x="498.84" y="-379.75" font-family="Helvetica,sans-Serif" font-size="10.00">Layer 5</text>
<text text-anchor="middle" x="498.84" y="-368.5" font-family="Helvetica,sans-Serif" font-size="10.00">Time &amp; Date</text>
</g>
<!-- L05&#45;&gt;L01 -->
<g id="edge7" class="edge">
<title>L05&#45;&gt;L01</title>
<path fill="none" stroke="#6e7781" d="M505.8,-396.2C514.31,-415.57 530.31,-447.07 551.84,-468 560.56,-476.48 584.56,-489.84 606.25,-501.03"/>
<polygon fill="#6e7781" stroke="#6e7781" points="605.1,-503.2 612.45,-504.2 607.33,-498.83 605.1,-503.2"/>
</g>
<!-- L05&#45;&gt;L02 -->
<g id="edge8" class="edge">
<title>L05&#45;&gt;L02</title>
<path fill="none" stroke="#6e7781" d="M487.96,-396.3C482.58,-404.86 476,-415.34 470.12,-424.7"/>
<polygon fill="#6e7781" stroke="#6e7781" points="468.05,-423.38 466.4,-430.61 472.2,-425.99 468.05,-423.38"/>
</g>
<!-- L06 -->
<g id="node7" class="node">
<title>L06</title>
<path fill="#e8f4ff" stroke="#1f6feb" d="M462.01,-612C462.01,-612 427.66,-612 427.66,-612 421.66,-612 415.66,-606 415.66,-600 415.66,-600 415.66,-588 415.66,-588 415.66,-582 421.66,-576 427.66,-576 427.66,-576 462.01,-576 462.01,-576 468.01,-576 474.01,-582 474.01,-588 474.01,-588 474.01,-600 474.01,-600 474.01,-606 468.01,-612 462.01,-612"/>
<text text-anchor="middle" x="444.84" y="-595.75" font-family="Helvetica,sans-Serif" font-size="10.00">Layer 6</text>
<text text-anchor="middle" x="444.84" y="-584.5" font-family="Helvetica,sans-Serif" font-size="10.00">Random</text>
</g>
<!-- L06&#45;&gt;L00 -->
<g id="edge9" class="edge">
<title>L06&#45;&gt;L00</title>
<path fill="none" stroke="#6e7781" d="M474.43,-594C516.84,-594 559.25,-594 601.65,-594"/>
<polygon fill="#6e7781" stroke="#6e7781" points="601.62,-596.45 608.62,-594 601.62,-591.55 601.62,-596.45"/>
</g>
<!-- L07&#45;&gt;L01 -->
<g id="edge10" class="edge">
<title>L07&#45;&gt;L01</title>
<path fill="none" stroke="#6e7781" d="M596.85,-522C599.8,-522 602.75,-522 605.71,-522"/>
<polygon fill="#6e7781" stroke="#6e7781" points="605.52,-524.45 612.52,-522 605.52,-519.55 605.52,-524.45"/>
</g>
<!-- L08 -->
<g id="node9" class="node">
<title>L08</title>
<path fill="#e8fff0" stroke="#1a7f37" d="M1118.14,-468C1118.14,-468 1045.54,-468 1045.54,-468 1039.54,-468 1033.54,-462 1033.54,-456 1033.54,-456 1033.54,-444 1033.54,-444 1033.54,-438 1039.54,-432 1045.54,-432 1045.54,-432 1118.14,-432 1118.14,-432 1124.14,-432 1130.14,-438 1130.14,-444 1130.14,-444 1130.14,-456 1130.14,-456 1130.14,-462 1124.14,-468 1118.14,-468"/>
<text text-anchor="middle" x="1081.84" y="-451.75" font-family="Helvetica,sans-Serif" font-size="10.00">Layer 8</text>
<text text-anchor="middle" x="1081.84" y="-440.5" font-family="Helvetica,sans-Serif" font-size="10.00">Filesystem &amp; OS</text>
</g>
<!-- L08&#45;&gt;L01 -->
<g id="edge11" class="edge">
<title>L08&#45;&gt;L01</title>
<path fill="none" stroke="#6e7781" d="M1033.28,-459.37C1016.95,-462.16 998.61,-465.25 981.84,-468 875.9,-485.38 750.95,-504.89 687.8,-514.68"/>
<polygon fill="#6e7781" stroke="#6e7781" points="687.71,-512.21 681.17,-515.7 688.46,-517.05 687.71,-512.21"/>
</g>
<!-- L09 -->
<g id="node10" class="node">
<title>L09</title>
<path fill="#e8fff0" stroke="#1a7f37" d="M1313.64,-396C1313.64,-396 1250.04,-396 1250.04,-396 1244.04,-396 1238.04,-390 1238.04,-384 1238.04,-384 1238.04,-372 1238.04,-372 1238.04,-366 1244.04,-360 1250.04,-360 1250.04,-360 1313.64,-360 1313.64,-360 1319.64,-360 1325.64,-366 1325.64,-372 1325.64,-372 1325.64,-384 1325.64,-384 1325.64,-390 1319.64,-396 1313.64,-396"/>
<text text-anchor="middle" x="1281.84" y="-379.75" font-family="Helvetica,sans-Serif" font-size="10.00">Layer 9</text>
<text text-anchor="middle" x="1281.84" y="-368.5" font-family="Helvetica,sans-Serif" font-size="10.00">Process &amp; IPC</text>
</g>
<!-- L09&#45;&gt;L08 -->
<g id="edge12" class="edge">
<title>L09&#45;&gt;L08</title>
<path fill="none" stroke="#6e7781" d="M1237.95,-394.36C1208.69,-404.6 1169.96,-418.16 1138.4,-429.2"/>
<polygon fill="#6e7781" stroke="#6e7781" points="1137.76,-426.83 1131.97,-431.46 1139.38,-431.46 1137.76,-426.83"/>
</g>
<!-- L10 -->
<g id="node11" class="node">
<title>L10</title>
<path fill="#e8fff0" stroke="#1a7f37" d="M1032.39,-540C1032.39,-540 979.29,-540 979.29,-540 973.29,-540 967.29,-534 967.29,-528 967.29,-528 967.29,-516 967.29,-516 967.29,-510 973.29,-504 979.29,-504 979.29,-504 1032.39,-504 1032.39,-504 1038.39,-504 1044.39,-510 1044.39,-516 1044.39,-516 1044.39,-528 1044.39,-528 1044.39,-534 1038.39,-540 1032.39,-540"/>
<text text-anchor="middle" x="1005.84" y="-523.75" font-family="Helvetica,sans-Serif" font-size="10.00">Layer 10</text>
<text text-anchor="middle" x="1005.84" y="-512.5" font-family="Helvetica,sans-Serif" font-size="10.00">Concurrency</text>
</g>
<!-- L09&#45;&gt;L10 -->
<g id="edge13" class="edge">
<title>L09&#45;&gt;L10</title>
<path fill="none" stroke="#6e7781" d="M1275.27,-396.25C1266.61,-416.58 1249.43,-449.89 1223.84,-468 1172.85,-504.08 1100.2,-515.76 1053.03,-519.44"/>
<polygon fill="#6e7781" stroke="#6e7781" points="1053.14,-516.98 1046.33,-519.92 1053.48,-521.87 1053.14,-516.98"/>
</g>
<!-- L10&#45;&gt;L00 -->
<g id="edge14" class="edge">
<title>L10&#45;&gt;L00</title>
<path fill="none" stroke="#6e7781" d="M967.08,-530.56C900.09,-543.62 763.02,-570.35 691.89,-584.22"/>
<polygon fill="#6e7781" stroke="#6e7781" points="691.44,-581.81 685.04,-585.55 692.38,-586.62 691.44,-581.81"/>
</g>
<!-- L11 -->
<g id="node12" class="node">
<title>L11</title>
<path fill="#fff4d6" stroke="#bf8700" d="M1035.39,-396C1035.39,-396 970.29,-396 970.29,-396 964.29,-396 958.29,-390 958.29,-384 958.29,-384 958.29,-372 958.29,-372 958.29,-366 964.29,-360 970.29,-360 970.29,-360 1035.39,-360 1035.39,-360 1041.39,-360 1047.39,-366 1047.39,-372 1047.39,-372 1047.39,-384 1047.39,-384 1047.39,-390 1041.39,-396 1035.39,-396"/>
<text text-anchor="middle" x="1002.84" y="-379.75" font-family="Helvetica,sans-Serif" font-size="10.00">Layer 11</text>
<text text-anchor="middle" x="1002.84" y="-368.5" font-family="Helvetica,sans-Serif" font-size="10.00">Async Runtime</text>
</g>
<!-- L11&#45;&gt;L01 -->
<g id="edge15" class="edge">
<title>L11&#45;&gt;L01</title>
<path fill="none" stroke="#6e7781" d="M996.41,-396.17C987.76,-416.74 970.34,-450.6 943.84,-468 902.35,-495.24 759.48,-511.2 688.1,-517.65"/>
<polygon fill="#6e7781" stroke="#6e7781" points="688.03,-515.19 681.27,-518.25 688.46,-520.08 688.03,-515.19"/>
</g>
<!-- L11&#45;&gt;L08 -->
<g id="edge16" class="edge">
<title>L11&#45;&gt;L08</title>
<path fill="none" stroke="#6e7781" d="M1022.37,-396.3C1032.53,-405.31 1045.08,-416.43 1056.03,-426.13"/>
<polygon fill="#6e7781" stroke="#6e7781" points="1054.27,-427.84 1061.13,-430.65 1057.52,-424.17 1054.27,-427.84"/>
</g>
<!-- L11&#45;&gt;L10 -->
<g id="edge17" class="edge">
<title>L11&#45;&gt;L10</title>
<path fill="none" stroke="#6e7781" d="M1003.21,-396.41C1003.73,-421.24 1004.7,-466.99 1005.3,-495.6"/>
<polygon fill="#6e7781" stroke="#6e7781" points="1002.85,-495.43 1005.45,-502.38 1007.75,-495.33 1002.85,-495.43"/>
</g>
<!-- L12 -->
<g id="node13" class="node">
<title>L12</title>
<path fill="#fde2e2" stroke="#cf222e" d="M104.89,-396C104.89,-396 48.79,-396 48.79,-396 42.79,-396 36.79,-390 36.79,-384 36.79,-384 36.79,-372 36.79,-372 36.79,-366 42.79,-360 48.79,-360 48.79,-360 104.89,-360 104.89,-360 110.89,-360 116.89,-366 116.89,-372 116.89,-372 116.89,-384 116.89,-384 116.89,-390 110.89,-396 104.89,-396"/>
<text text-anchor="middle" x="76.84" y="-379.75" font-family="Helvetica,sans-Serif" font-size="10.00">Layer 12</text>
<text text-anchor="middle" x="76.84" y="-368.5" font-family="Helvetica,sans-Serif" font-size="10.00">Cryptography</text>
</g>
<!-- L12&#45;&gt;L01 -->
<g id="edge18" class="edge">
<title>L12&#45;&gt;L01</title>
<path fill="none" stroke="#6e7781" d="M81.91,-396.21C89.08,-417.15 104.35,-451.74 130.84,-468 218.94,-522.08 489.77,-481.42 605.93,-504.56"/>
<polygon fill="#6e7781" stroke="#6e7781" points="605.18,-506.91 612.54,-506.02 606.23,-502.12 605.18,-506.91"/>
</g>
<!-- L12&#45;&gt;L04 -->
<g id="edge19" class="edge">
<title>L12&#45;&gt;L04</title>
<path fill="none" stroke="#6e7781" d="M47.95,-396.5C35.96,-405.47 23.35,-417.56 16.84,-432 -2.89,-475.76 -7.56,-498.66 16.84,-540 26.2,-555.85 42.18,-567.29 58.45,-575.39"/>
<polygon fill="#6e7781" stroke="#6e7781" points="57.17,-577.5 64.55,-578.24 59.24,-573.06 57.17,-577.5"/>
</g>
<!-- L12&#45;&gt;L06 -->
<g id="edge20" class="edge">
<title>L12&#45;&gt;L06</title>
<path fill="none" stroke="#6e7781" d="M75.61,-396.22C75.17,-415.91 77.5,-447.98 94.84,-468 176.52,-562.33 334.53,-585.47 406.93,-591.15"/>
<polygon fill="#6e7781" stroke="#6e7781" points="406.66,-593.59 413.82,-591.65 407.01,-588.7 406.66,-593.59"/>
</g>
<!-- L13 -->
<g id="node14" class="node">
<title>L13</title>
<path fill="#fde2e2" stroke="#cf222e" d="M403.26,-324C403.26,-324 358.41,-324 358.41,-324 352.41,-324 346.41,-318 346.41,-312 346.41,-312 346.41,-300 346.41,-300 346.41,-294 352.41,-288 358.41,-288 358.41,-288 403.26,-288 403.26,-288 409.26,-288 415.26,-294 415.26,-300 415.26,-300 415.26,-312 415.26,-312 415.26,-318 409.26,-324 403.26,-324"/>
<text text-anchor="middle" x="380.84" y="-307.75" font-family="Helvetica,sans-Serif" font-size="10.00">Layer 13</text>
<text text-anchor="middle" x="380.84" y="-296.5" font-family="Helvetica,sans-Serif" font-size="10.00">TLS &amp; PKI</text>
</g>
<!-- L13&#45;&gt;L11 -->
<g id="edge21" class="edge">
<title>L13&#45;&gt;L11</title>
<path fill="none" stroke="#6e7781" d="M415.63,-321.44C418.71,-322.42 421.81,-323.29 424.84,-324 523.99,-347.22 826.84,-366.81 949.96,-374.03"/>
<polygon fill="#6e7781" stroke="#6e7781" points="949.51,-376.46 956.64,-374.42 949.8,-371.57 949.51,-376.46"/>
</g>
<!-- L13&#45;&gt;L12 -->
<g id="edge22" class="edge">
<title>L13&#45;&gt;L12</title>
<path fill="none" stroke="#6e7781" d="M345.97,-315.03C291.64,-327.54 186.65,-351.71 125.09,-365.89"/>
<polygon fill="#6e7781" stroke="#6e7781" points="124.82,-363.44 118.55,-367.4 125.92,-368.21 124.82,-363.44"/>
</g>
<!-- L14 -->
<g id="node15" class="node">
<title>L14</title>
<path fill="#f3e8ff" stroke="#8250df" d="M496.26,-324C496.26,-324 445.41,-324 445.41,-324 439.41,-324 433.41,-318 433.41,-312 433.41,-312 433.41,-300 433.41,-300 433.41,-294 439.41,-288 445.41,-288 445.41,-288 496.26,-288 496.26,-288 502.26,-288 508.26,-294 508.26,-300 508.26,-300 508.26,-312 508.26,-312 508.26,-318 502.26,-324 496.26,-324"/>
<text text-anchor="middle" x="470.84" y="-307.75" font-family="Helvetica,sans-Serif" font-size="10.00">Layer 14</text>
<text text-anchor="middle" x="470.84" y="-296.5" font-family="Helvetica,sans-Serif" font-size="10.00">Serialization</text>
</g>
<!-- L13&#45;&gt;L14 -->
<g id="edge23" class="edge">
<title>L13&#45;&gt;L14</title>
<path fill="none" stroke="#6e7781" d="M415.64,-306C418.78,-306 421.91,-306 425.04,-306"/>
<polygon fill="#6e7781" stroke="#6e7781" points="424.81,-308.45 431.81,-306 424.81,-303.55 424.81,-308.45"/>
</g>
<!-- L14&#45;&gt;L01 -->
<g id="edge24" class="edge">
<title>L14&#45;&gt;L01</title>
<path fill="none" stroke="#6e7781" d="M452.35,-324.25C420.8,-355.74 363.4,-423.42 400.84,-468 460.33,-538.84 517.03,-478.13 605.84,-504 605.92,-504.02 606.01,-504.05 606.09,-504.07"/>
<polygon fill="#6e7781" stroke="#6e7781" points="605.09,-506.32 612.51,-506.16 606.61,-501.67 605.09,-506.32"/>
</g>
<!-- L24 -->
<g id="node25" class="node">
<title>L24</title>
<path fill="#ffd6d6" stroke="#a5310a" d="M687.64,-396C687.64,-396 606.04,-396 606.04,-396 600.04,-396 594.04,-390 594.04,-384 594.04,-384 594.04,-372 594.04,-372 594.04,-366 600.04,-360 606.04,-360 606.04,-360 687.64,-360 687.64,-360 693.64,-360 699.64,-366 699.64,-372 699.64,-372 699.64,-384 699.64,-384 699.64,-390 693.64,-396 687.64,-396"/>
<text text-anchor="middle" x="646.84" y="-379.75" font-family="Helvetica,sans-Serif" font-size="10.00">Layer 24</text>
<text text-anchor="middle" x="646.84" y="-368.5" font-family="Helvetica,sans-Serif" font-size="10.00">Macros &amp; Codegen</text>
</g>
<!-- L14&#45;&gt;L24 -->
<g id="edge25" class="edge">
<title>L14&#45;&gt;L24</title>
<path fill="none" stroke="#6e7781" d="M508.6,-322.02C533.89,-332.08 567.52,-345.45 595.28,-356.49"/>
<polygon fill="#6e7781" stroke="#6e7781" points="594.12,-358.67 601.53,-358.98 595.93,-354.12 594.12,-358.67"/>
</g>
<!-- L15 -->
<g id="node16" class="node">
<title>L15</title>
<path fill="#f3e8ff" stroke="#8250df" d="M309.64,-252C309.64,-252 252.04,-252 252.04,-252 246.04,-252 240.04,-246 240.04,-240 240.04,-240 240.04,-228 240.04,-228 240.04,-222 246.04,-216 252.04,-216 252.04,-216 309.64,-216 309.64,-216 315.64,-216 321.64,-222 321.64,-228 321.64,-228 321.64,-240 321.64,-240 321.64,-246 315.64,-252 309.64,-252"/>
<text text-anchor="middle" x="280.84" y="-235.75" font-family="Helvetica,sans-Serif" font-size="10.00">Layer 15</text>
<text text-anchor="middle" x="280.84" y="-224.5" font-family="Helvetica,sans-Serif" font-size="10.00">Data Formats</text>
</g>
<!-- L15&#45;&gt;L01 -->
<g id="edge26" class="edge">
<title>L15&#45;&gt;L01</title>
<path fill="none" stroke="#6e7781" d="M282.76,-252.42C288.66,-296.89 310.93,-414.86 384.84,-468 465.64,-526.09 510.12,-476.76 605.84,-504 605.92,-504.02 606.01,-504.05 606.09,-504.07"/>
<polygon fill="#6e7781" stroke="#6e7781" points="605.1,-506.33 612.51,-506.13 606.6,-501.66 605.1,-506.33"/>
</g>
<!-- L15&#45;&gt;L02 -->
<g id="edge27" class="edge">
<title>L15&#45;&gt;L02</title>
<path fill="none" stroke="#6e7781" d="M290.67,-252.36C301.39,-270.76 319.48,-300.39 337.84,-324 367.28,-361.85 406.08,-401.64 430.75,-425.89"/>
<polygon fill="#6e7781" stroke="#6e7781" points="428.9,-427.51 435.62,-430.65 432.33,-424.01 428.9,-427.51"/>
</g>
<!-- L15&#45;&gt;L14 -->
<g id="edge28" class="edge">
<title>L15&#45;&gt;L14</title>
<path fill="none" stroke="#6e7781" d="M322.07,-250.19C352.45,-261.38 393.78,-276.61 425.17,-288.17"/>
<polygon fill="#6e7781" stroke="#6e7781" points="424.09,-290.39 431.5,-290.51 425.78,-285.79 424.09,-290.39"/>
</g>
<!-- L16 -->
<g id="node17" class="node">
<title>L16</title>
<path fill="#f3e8ff" stroke="#8250df" d="M240.51,-396C240.51,-396 185.16,-396 185.16,-396 179.16,-396 173.16,-390 173.16,-384 173.16,-384 173.16,-372 173.16,-372 173.16,-366 179.16,-360 185.16,-360 185.16,-360 240.51,-360 240.51,-360 246.51,-360 252.51,-366 252.51,-372 252.51,-372 252.51,-384 252.51,-384 252.51,-390 246.51,-396 240.51,-396"/>
<text text-anchor="middle" x="212.84" y="-379.75" font-family="Helvetica,sans-Serif" font-size="10.00">Layer 16</text>
<text text-anchor="middle" x="212.84" y="-368.5" font-family="Helvetica,sans-Serif" font-size="10.00">Compression</text>
</g>
<!-- L16&#45;&gt;L01 -->
<g id="edge29" class="edge">
<title>L16&#45;&gt;L01</title>
<path fill="none" stroke="#6e7781" d="M218.12,-396.44C225.42,-417.29 240.75,-451.44 266.84,-468 330.8,-508.6 532.43,-485.3 605.84,-504 605.92,-504.02 606.01,-504.04 606.09,-504.06"/>
<polygon fill="#6e7781" stroke="#6e7781" points="605.14,-506.34 612.55,-506 606.55,-501.64 605.14,-506.34"/>
</g>
<!-- L17 -->
<g id="node18" class="node">
<title>L17</title>
<path fill="#e2f5ff" stroke="#0969da" d="M703.39,-252C703.39,-252 656.29,-252 656.29,-252 650.29,-252 644.29,-246 644.29,-240 644.29,-240 644.29,-228 644.29,-228 644.29,-222 650.29,-216 656.29,-216 656.29,-216 703.39,-216 703.39,-216 709.39,-216 715.39,-222 715.39,-228 715.39,-228 715.39,-240 715.39,-240 715.39,-246 709.39,-252 703.39,-252"/>
<text text-anchor="middle" x="679.84" y="-235.75" font-family="Helvetica,sans-Serif" font-size="10.00">Layer 17</text>
<text text-anchor="middle" x="679.84" y="-224.5" font-family="Helvetica,sans-Serif" font-size="10.00">Networking</text>
</g>
<!-- L17&#45;&gt;L01 -->
<g id="edge30" class="edge">
<title>L17&#45;&gt;L01</title>
<path fill="none" stroke="#6e7781" d="M713.07,-252.49C726.12,-261.25 739.67,-273.18 746.84,-288 753.81,-302.4 749.2,-308.18 746.84,-324 736.95,-390.19 738.09,-411.11 702.84,-468 695.9,-479.2 686.02,-489.62 676.48,-498.21"/>
<polygon fill="#6e7781" stroke="#6e7781" points="675.12,-496.15 671.44,-502.59 678.33,-499.85 675.12,-496.15"/>
</g>
<!-- L17&#45;&gt;L11 -->
<g id="edge31" class="edge">
<title>L17&#45;&gt;L11</title>
<path fill="none" stroke="#6e7781" d="M715.74,-241.62C766.99,-251.5 858.12,-270.79 886.84,-288 905.46,-299.15 903.22,-310.04 919.84,-324 933.57,-335.53 949.97,-346.5 964.56,-355.44"/>
<polygon fill="#6e7781" stroke="#6e7781" points="963,-357.36 970.26,-358.88 965.53,-353.17 963,-357.36"/>
</g>
<!-- L17&#45;&gt;L13 -->
<g id="edge32" class="edge">
<title>L17&#45;&gt;L13</title>
<path fill="none" stroke="#6e7781" d="M643.91,-240.56C594.12,-248.69 501.6,-265.36 424.84,-288 424.47,-288.11 424.09,-288.22 423.72,-288.34"/>
<polygon fill="#6e7781" stroke="#6e7781" points="423.07,-285.97 417.17,-290.46 424.58,-290.63 423.07,-285.97"/>
</g>
<!-- L18 -->
<g id="node19" class="node">
<title>L18</title>
<path fill="#e2f5ff" stroke="#0969da" d="M571.01,-180C571.01,-180 518.66,-180 518.66,-180 512.66,-180 506.66,-174 506.66,-168 506.66,-168 506.66,-156 506.66,-156 506.66,-150 512.66,-144 518.66,-144 518.66,-144 571.01,-144 571.01,-144 577.01,-144 583.01,-150 583.01,-156 583.01,-156 583.01,-168 583.01,-168 583.01,-174 577.01,-180 571.01,-180"/>
<text text-anchor="middle" x="544.84" y="-163.75" font-family="Helvetica,sans-Serif" font-size="10.00">Layer 18</text>
<text text-anchor="middle" x="544.84" y="-152.5" font-family="Helvetica,sans-Serif" font-size="10.00">HTTP Stack</text>
</g>
<!-- L18&#45;&gt;L01 -->
<g id="edge33" class="edge">
<title>L18&#45;&gt;L01</title>
<path fill="none" stroke="#6e7781" d="M546.09,-180.37C549.29,-219.64 559.39,-317.96 584.84,-396 596.82,-432.73 617.94,-472.22 632.16,-496.76"/>
<polygon fill="#6e7781" stroke="#6e7781" points="629.91,-497.78 635.57,-502.58 634.14,-495.3 629.91,-497.78"/>
</g>
<!-- L18&#45;&gt;L05 -->
<g id="edge34" class="edge">
<title>L18&#45;&gt;L05</title>
<path fill="none" stroke="#6e7781" d="M542.75,-180.1C538.95,-209.72 530.03,-272.32 516.84,-324 514.51,-333.13 511.36,-342.95 508.35,-351.63"/>
<polygon fill="#6e7781" stroke="#6e7781" points="506.08,-350.7 506.04,-358.11 510.7,-352.34 506.08,-350.7"/>
</g>
<!-- L18&#45;&gt;L14 -->
<g id="edge35" class="edge">
<title>L18&#45;&gt;L14</title>
<path fill="none" stroke="#6e7781" d="M535.77,-180.41C522.66,-205.57 498.37,-252.17 483.5,-280.7"/>
<polygon fill="#6e7781" stroke="#6e7781" points="481.52,-279.21 480.46,-286.55 485.86,-281.47 481.52,-279.21"/>
</g>
<!-- L18&#45;&gt;L16 -->
<g id="edge36" class="edge">
<title>L18&#45;&gt;L16</title>
<path fill="none" stroke="#6e7781" d="M506.45,-163.91C431.09,-166.56 267.92,-176.78 230.84,-216 196.46,-252.36 201.17,-315.95 207.25,-351.35"/>
<polygon fill="#6e7781" stroke="#6e7781" points="204.84,-351.79 208.52,-358.23 209.65,-350.9 204.84,-351.79"/>
</g>
<!-- L18&#45;&gt;L17 -->
<g id="edge37" class="edge">
<title>L18&#45;&gt;L17</title>
<path fill="none" stroke="#6e7781" d="M578.56,-180.48C596.9,-189.99 619.72,-201.83 639.05,-211.85"/>
<polygon fill="#6e7781" stroke="#6e7781" points="637.87,-214 645.21,-215.04 640.12,-209.65 637.87,-214"/>
</g>
<!-- L19 -->
<g id="node20" class="node">
<title>L19</title>
<path fill="#ffe2f0" stroke="#bf3989" d="M501.89,-108C501.89,-108 427.79,-108 427.79,-108 421.79,-108 415.79,-102 415.79,-96 415.79,-96 415.79,-84 415.79,-84 415.79,-78 421.79,-72 427.79,-72 427.79,-72 501.89,-72 501.89,-72 507.89,-72 513.89,-78 513.89,-84 513.89,-84 513.89,-96 513.89,-96 513.89,-102 507.89,-108 501.89,-108"/>
<text text-anchor="middle" x="464.84" y="-91.75" font-family="Helvetica,sans-Serif" font-size="10.00">Layer 19</text>
<text text-anchor="middle" x="464.84" y="-80.5" font-family="Helvetica,sans-Serif" font-size="10.00">Web Frameworks</text>
</g>
<!-- L19&#45;&gt;L12 -->
<g id="edge38" class="edge">
<title>L19&#45;&gt;L12</title>
<path fill="none" stroke="#6e7781" d="M415.63,-90.64C324.46,-91.1 134.67,-97.75 91.84,-144 38.84,-201.24 57.05,-304.09 69.35,-351.63"/>
<polygon fill="#6e7781" stroke="#6e7781" points="66.91,-351.99 71.1,-358.11 71.65,-350.72 66.91,-351.99"/>
</g>
<!-- L19&#45;&gt;L14 -->
<g id="edge39" class="edge">
<title>L19&#45;&gt;L14</title>
<path fill="none" stroke="#6e7781" d="M458.6,-108.41C455.27,-118.63 451.52,-131.88 449.84,-144 443.24,-191.54 440.84,-204.85 449.84,-252 451.66,-261.53 455.16,-271.53 458.79,-280.24"/>
<polygon fill="#6e7781" stroke="#6e7781" points="456.46,-281.02 461.51,-286.45 460.95,-279.05 456.46,-281.02"/>
</g>
<!-- L19&#45;&gt;L18 -->
<g id="edge40" class="edge">
<title>L19&#45;&gt;L18</title>
<path fill="none" stroke="#6e7781" d="M484.62,-108.3C494.9,-117.31 507.61,-128.43 518.7,-138.13"/>
<polygon fill="#6e7781" stroke="#6e7781" points="516.99,-139.89 523.88,-142.66 520.22,-136.2 516.99,-139.89"/>
</g>
<!-- L19&#45;&gt;L24 -->
<g id="edge41" class="edge">
<title>L19&#45;&gt;L24</title>
<path fill="none" stroke="#6e7781" d="M514.12,-106.39C545.1,-117.01 581.17,-131.43 591.84,-144 618.46,-175.37 636.8,-297.57 643.75,-351.35"/>
<polygon fill="#6e7781" stroke="#6e7781" points="641.3,-351.53 644.61,-358.17 646.16,-350.92 641.3,-351.53"/>
</g>
<!-- L20 -->
<g id="node21" class="node">
<title>L20</title>
<path fill="#e8e8ff" stroke="#5a5aff" d="M588.26,-108C588.26,-108 543.41,-108 543.41,-108 537.41,-108 531.41,-102 531.41,-96 531.41,-96 531.41,-84 531.41,-84 531.41,-78 537.41,-72 543.41,-72 543.41,-72 588.26,-72 588.26,-72 594.26,-72 600.26,-78 600.26,-84 600.26,-84 600.26,-96 600.26,-96 600.26,-102 594.26,-108 588.26,-108"/>
<text text-anchor="middle" x="565.84" y="-91.75" font-family="Helvetica,sans-Serif" font-size="10.00">Layer 20</text>
<text text-anchor="middle" x="565.84" y="-80.5" font-family="Helvetica,sans-Serif" font-size="10.00">Databases</text>
</g>
<!-- L20&#45;&gt;L11 -->
<g id="edge42" class="edge">
<title>L20&#45;&gt;L11</title>
<path fill="none" stroke="#6e7781" d="M600.76,-95.58C697.82,-109.03 967.4,-151.59 1024.84,-216 1056.95,-252.01 1049.1,-277.61 1035.84,-324 1032.95,-334.1 1027.53,-344.14 1021.89,-352.73"/>
<polygon fill="#6e7781" stroke="#6e7781" points="1019.99,-351.17 1018.03,-358.32 1024.02,-353.96 1019.99,-351.17"/>
</g>
<!-- L20&#45;&gt;L14 -->
<g id="edge43" class="edge">
<title>L20&#45;&gt;L14</title>
<path fill="none" stroke="#6e7781" d="M534.35,-108.3C521.02,-117.23 506.58,-129.34 497.84,-144 472.53,-186.46 469.18,-245.8 469.61,-279.3"/>
<polygon fill="#6e7781" stroke="#6e7781" points="467.15,-279.18 469.77,-286.12 472.05,-279.07 467.15,-279.18"/>
</g>
<!-- L20&#45;&gt;L16 -->
<g id="edge44" class="edge">
<title>L20&#45;&gt;L16</title>
<path fill="none" stroke="#6e7781" d="M531.16,-104.87C528.35,-105.95 525.55,-107 522.84,-108 383.57,-159.3 299.71,-100.23 206.84,-216 175.73,-254.78 190.71,-317.33 202.78,-351.94"/>
<polygon fill="#6e7781" stroke="#6e7781" points="200.39,-352.53 205.08,-358.28 205,-350.86 200.39,-352.53"/>
</g>
<!-- L20&#45;&gt;L17 -->
<g id="edge45" class="edge">
<title>L20&#45;&gt;L17</title>
<path fill="none" stroke="#6e7781" d="M591.13,-108.49C603.75,-118.03 618.65,-130.6 629.84,-144 646.24,-163.64 660.04,-189.44 668.96,-208.2"/>
<polygon fill="#6e7781" stroke="#6e7781" points="666.67,-209.08 671.84,-214.4 671.11,-207.01 666.67,-209.08"/>
</g>
<!-- L20&#45;&gt;L18 -->
<g id="edge46" class="edge">
<title>L20&#45;&gt;L18</title>
<path fill="none" stroke="#6e7781" d="M560.65,-108.3C558.16,-116.61 555.12,-126.72 552.38,-135.86"/>
<polygon fill="#6e7781" stroke="#6e7781" points="550.07,-135.04 550.41,-142.45 554.76,-136.45 550.07,-135.04"/>
</g>
<!-- L21 -->
<g id="node22" class="node">
<title>L21</title>
<path fill="#ffead5" stroke="#a5670a" d="M167.14,-180C167.14,-180 112.54,-180 112.54,-180 106.54,-180 100.54,-174 100.54,-168 100.54,-168 100.54,-156 100.54,-156 100.54,-150 106.54,-144 112.54,-144 112.54,-144 167.14,-144 167.14,-144 173.14,-144 179.14,-150 179.14,-156 179.14,-156 179.14,-168 179.14,-168 179.14,-174 173.14,-180 167.14,-180"/>
<text text-anchor="middle" x="139.84" y="-163.75" font-family="Helvetica,sans-Serif" font-size="10.00">Layer 21</text>
<text text-anchor="middle" x="139.84" y="-152.5" font-family="Helvetica,sans-Serif" font-size="10.00">Observability</text>
</g>
<!-- L21&#45;&gt;L01 -->
<g id="edge47" class="edge">
<title>L21&#45;&gt;L01</title>
<path fill="none" stroke="#6e7781" d="M138.01,-180.34C134.53,-220.38 130.06,-321.57 163.84,-396 181.9,-435.8 191.64,-448.65 230.84,-468 378.63,-540.95 441.41,-465.91 606.09,-504.48"/>
<polygon fill="#6e7781" stroke="#6e7781" points="605.16,-506.77 612.54,-506.04 606.31,-502.01 605.16,-506.77"/>
</g>
<!-- L21&#45;&gt;L07 -->
<g id="edge48" class="edge">
<title>L21&#45;&gt;L07</title>
<path fill="none" stroke="#6e7781" d="M125.76,-180.34C100.22,-213.06 47.1,-287.16 27.84,-360 13.4,-414.61 44.39,-442.6 94.84,-468 171.05,-506.37 432.12,-517.33 530.2,-520.13"/>
<polygon fill="#6e7781" stroke="#6e7781" points="530.04,-522.57 537.11,-520.32 530.18,-517.67 530.04,-522.57"/>
</g>
<!-- L21&#45;&gt;L11 -->
<g id="edge49" class="edge">
<title>L21&#45;&gt;L11</title>
<path fill="none" stroke="#6e7781" d="M179.61,-165.08C348.08,-173.94 994.67,-208.42 1001.84,-216 1036.17,-252.28 1023.06,-316.34 1012.02,-351.74"/>
<polygon fill="#6e7781" stroke="#6e7781" points="1009.74,-350.81 1009.89,-358.23 1014.4,-352.34 1009.74,-350.81"/>
</g>
<!-- L21&#45;&gt;L14 -->
<g id="edge50" class="edge">
<title>L21&#45;&gt;L14</title>
<path fill="none" stroke="#6e7781" d="M179.34,-168.9C219.29,-176 281.95,-190.31 330.84,-216 352.9,-227.59 353.25,-237.96 373.84,-252 390.9,-263.64 410.76,-274.86 428.05,-283.95"/>
<polygon fill="#6e7781" stroke="#6e7781" points="426.61,-285.96 433.95,-287.02 428.87,-281.62 426.61,-285.96"/>
</g>
<!-- L22 -->
<g id="node23" class="node">
<title>L22</title>
<path fill="#d6ffe2" stroke="#0a7f3f" d="M981.14,-252C981.14,-252 908.54,-252 908.54,-252 902.54,-252 896.54,-246 896.54,-240 896.54,-240 896.54,-228 896.54,-228 896.54,-222 902.54,-216 908.54,-216 908.54,-216 981.14,-216 981.14,-216 987.14,-216 993.14,-222 993.14,-228 993.14,-228 993.14,-240 993.14,-240 993.14,-246 987.14,-252 981.14,-252"/>
<text text-anchor="middle" x="944.84" y="-235.75" font-family="Helvetica,sans-Serif" font-size="10.00">Layer 22</text>
<text text-anchor="middle" x="944.84" y="-224.5" font-family="Helvetica,sans-Serif" font-size="10.00">Config &amp; Secrets</text>
</g>
<!-- L22&#45;&gt;L01 -->
<g id="edge51" class="edge">
<title>L22&#45;&gt;L01</title>
<path fill="none" stroke="#6e7781" d="M946.76,-252.24C950.53,-295.27 953.84,-408.24 893.84,-468 865.29,-496.43 750.47,-511.36 687.93,-517.51"/>
<polygon fill="#6e7781" stroke="#6e7781" points="688.08,-515.04 681.35,-518.14 688.55,-519.91 688.08,-515.04"/>
</g>
<!-- L22&#45;&gt;L08 -->
<g id="edge52" class="edge">
<title>L22&#45;&gt;L08</title>
<path fill="none" stroke="#6e7781" d="M965.31,-252.35C990.45,-274.74 1032.71,-316.07 1056.84,-360 1067.78,-379.92 1074.26,-405.02 1077.88,-423.49"/>
<polygon fill="#6e7781" stroke="#6e7781" points="1075.44,-423.78 1079.11,-430.23 1080.26,-422.9 1075.44,-423.78"/>
</g>
<!-- L22&#45;&gt;L14 -->
<g id="edge53" class="edge">
<title>L22&#45;&gt;L14</title>
<path fill="none" stroke="#6e7781" d="M896.16,-250.09C893.35,-250.78 890.57,-251.42 887.84,-252 754.53,-280.15 593.88,-295.43 516.67,-301.64"/>
<polygon fill="#6e7781" stroke="#6e7781" points="516.86,-299.17 510.07,-302.16 517.24,-304.05 516.86,-299.17"/>
</g>
<!-- L23 -->
<g id="node24" class="node">
<title>L23</title>
<path fill="#d6ffe2" stroke="#0a7f3f" d="M1238.26,-180C1238.26,-180 1175.41,-180 1175.41,-180 1169.41,-180 1163.41,-174 1163.41,-168 1163.41,-168 1163.41,-156 1163.41,-156 1163.41,-150 1169.41,-144 1175.41,-144 1175.41,-144 1238.26,-144 1238.26,-144 1244.26,-144 1250.26,-150 1250.26,-156 1250.26,-156 1250.26,-168 1250.26,-168 1250.26,-174 1244.26,-180 1238.26,-180"/>
<text text-anchor="middle" x="1206.84" y="-163.75" font-family="Helvetica,sans-Serif" font-size="10.00">Layer 23</text>
<text text-anchor="middle" x="1206.84" y="-152.5" font-family="Helvetica,sans-Serif" font-size="10.00">CLI &amp; Terminal</text>
</g>
<!-- L23&#45;&gt;L01 -->
<g id="edge54" class="edge">
<title>L23&#45;&gt;L01</title>
<path fill="none" stroke="#6e7781" d="M1207.45,-180.49C1208.32,-207.28 1209.84,-260.12 1209.84,-305 1209.84,-305 1209.84,-305 1209.84,-379 1209.84,-429.6 1183.19,-443.64 1138.84,-468 1099.67,-489.52 799.13,-511.07 687.99,-518.39"/>
<polygon fill="#6e7781" stroke="#6e7781" points="688.03,-515.93 681.21,-518.83 688.35,-520.82 688.03,-515.93"/>
</g>
<!-- L23&#45;&gt;L08 -->
<g id="edge55" class="edge">
<title>L23&#45;&gt;L08</title>
<path fill="none" stroke="#6e7781" d="M1201.38,-180.22C1191.74,-210.01 1170.59,-272.86 1147.84,-324 1131.93,-359.76 1110.23,-399.49 1096.12,-424.35"/>
<polygon fill="#6e7781" stroke="#6e7781" points="1094.1,-422.96 1092.75,-430.26 1098.35,-425.39 1094.1,-422.96"/>
</g>
<!-- L23&#45;&gt;L09 -->
<g id="edge56" class="edge">
<title>L23&#45;&gt;L09</title>
<path fill="none" stroke="#6e7781" d="M1212.85,-180.15C1226.04,-217.79 1257.59,-307.8 1273.03,-351.85"/>
<polygon fill="#6e7781" stroke="#6e7781" points="1270.67,-352.54 1275.3,-358.34 1275.3,-350.92 1270.67,-352.54"/>
</g>
<!-- L23&#45;&gt;L24 -->
<g id="edge57" class="edge">
<title>L23&#45;&gt;L24</title>
<path fill="none" stroke="#6e7781" d="M1163.1,-162.35C1084.71,-162.5 916.14,-168.9 783.84,-216 782.06,-216.63 669.95,-286.47 668.84,-288 655.4,-306.56 650.12,-332.38 648.07,-351.44"/>
<polygon fill="#6e7781" stroke="#6e7781" points="645.65,-350.97 647.47,-358.16 650.53,-351.41 645.65,-350.97"/>
</g>
<!-- L24&#45;&gt;L01 -->
<g id="edge58" class="edge">
<title>L24&#45;&gt;L01</title>
<path fill="none" stroke="#6e7781" d="M646.84,-396.41C646.84,-421.24 646.84,-466.99 646.84,-495.6"/>
<polygon fill="#6e7781" stroke="#6e7781" points="644.39,-495.38 646.84,-502.38 649.29,-495.38 644.39,-495.38"/>
</g>
<!-- L25 -->
<g id="node26" class="node">
<title>L25</title>
<path fill="#d6efff" stroke="#0a4ea5" d="M725.39,-324C725.39,-324 690.29,-324 690.29,-324 684.29,-324 678.29,-318 678.29,-312 678.29,-312 678.29,-300 678.29,-300 678.29,-294 684.29,-288 690.29,-288 690.29,-288 725.39,-288 725.39,-288 731.39,-288 737.39,-294 737.39,-300 737.39,-300 737.39,-312 737.39,-312 737.39,-318 731.39,-324 725.39,-324"/>
<text text-anchor="middle" x="707.84" y="-307.75" font-family="Helvetica,sans-Serif" font-size="10.00">Layer 25</text>
<text text-anchor="middle" x="707.84" y="-296.5" font-family="Helvetica,sans-Serif" font-size="10.00">Testing</text>
</g>
<!-- L25&#45;&gt;L01 -->
<g id="edge59" class="edge">
<title>L25&#45;&gt;L01</title>
<path fill="none" stroke="#6e7781" d="M710.46,-324.33C712.63,-342.46 714.55,-371.63 708.84,-396 700.07,-433.4 678.37,-472.44 663.13,-496.73"/>
<polygon fill="#6e7781" stroke="#6e7781" points="661.15,-495.28 659.44,-502.5 665.28,-497.92 661.15,-495.28"/>
</g>
<!-- L25&#45;&gt;L14 -->
<g id="edge60" class="edge">
<title>L25&#45;&gt;L14</title>
<path fill="none" stroke="#6e7781" d="M677.84,-306C624.09,-306 570.35,-306 516.61,-306"/>
<polygon fill="#6e7781" stroke="#6e7781" points="516.85,-303.55 509.85,-306 516.85,-308.45 516.85,-303.55"/>
</g>
<!-- L25&#45;&gt;L24 -->
<g id="edge61" class="edge">
<title>L25&#45;&gt;L24</title>
<path fill="none" stroke="#6e7781" d="M692.76,-324.3C685.08,-333.12 675.62,-343.97 667.3,-353.53"/>
<polygon fill="#6e7781" stroke="#6e7781" points="665.49,-351.87 662.74,-358.75 669.19,-355.09 665.49,-351.87"/>
</g>
<!-- L26 -->
<g id="node27" class="node">
<title>L26</title>
<path fill="#f0d6ff" stroke="#5a0aa5" d="M865.39,-324C865.39,-324 806.29,-324 806.29,-324 800.29,-324 794.29,-318 794.29,-312 794.29,-312 794.29,-300 794.29,-300 794.29,-294 800.29,-288 806.29,-288 806.29,-288 865.39,-288 865.39,-288 871.39,-288 877.39,-294 877.39,-300 877.39,-300 877.39,-312 877.39,-312 877.39,-318 871.39,-324 865.39,-324"/>
<text text-anchor="middle" x="835.84" y="-307.75" font-family="Helvetica,sans-Serif" font-size="10.00">Layer 26</text>
<text text-anchor="middle" x="835.84" y="-296.5" font-family="Helvetica,sans-Serif" font-size="10.00">Compiler Infra</text>
</g>
<!-- L26&#45;&gt;L01 -->
<g id="edge62" class="edge">
<title>L26&#45;&gt;L01</title>
<path fill="none" stroke="#6e7781" d="M848.2,-324.31C869.33,-356.22 906.96,-424.96 872.84,-468 850.23,-496.52 747.03,-511.18 688.21,-517.34"/>
<polygon fill="#6e7781" stroke="#6e7781" points="688.09,-514.89 681.37,-518.03 688.58,-519.76 688.09,-514.89"/>
</g>
<!-- L26&#45;&gt;L03 -->
<g id="edge63" class="edge">
<title>L26&#45;&gt;L03</title>
<path fill="none" stroke="#6e7781" d="M834.98,-324.41C833.76,-349.24 831.5,-394.99 830.09,-423.6"/>
<polygon fill="#6e7781" stroke="#6e7781" points="827.66,-423.27 829.76,-430.38 832.55,-423.51 827.66,-423.27"/>
</g>
<!-- L26&#45;&gt;L24 -->
<g id="edge64" class="edge">
<title>L26&#45;&gt;L24</title>
<path fill="none" stroke="#6e7781" d="M793.89,-322.54C766.74,-332.59 731.1,-345.79 701.7,-356.68"/>
<polygon fill="#6e7781" stroke="#6e7781" points="701.12,-354.28 695.4,-359.01 702.82,-358.88 701.12,-354.28"/>
</g>
<!-- L27 -->
<g id="node28" class="node">
<title>L27</title>
<path fill="#f0d6ff" stroke="#5a0aa5" d="M866.89,-252C866.89,-252 804.79,-252 804.79,-252 798.79,-252 792.79,-246 792.79,-240 792.79,-240 792.79,-228 792.79,-228 792.79,-222 798.79,-216 804.79,-216 804.79,-216 866.89,-216 866.89,-216 872.89,-216 878.89,-222 878.89,-228 878.89,-228 878.89,-240 878.89,-240 878.89,-246 872.89,-252 866.89,-252"/>
<text text-anchor="middle" x="835.84" y="-235.75" font-family="Helvetica,sans-Serif" font-size="10.00">Layer 27</text>
<text text-anchor="middle" x="835.84" y="-224.5" font-family="Helvetica,sans-Serif" font-size="10.00">WASM Tooling</text>
</g>
<!-- L27&#45;&gt;L11 -->
<g id="edge65" class="edge">
<title>L27&#45;&gt;L11</title>
<path fill="none" stroke="#6e7781" d="M867.47,-252.33C883.8,-261.92 903.64,-274.58 919.84,-288 943.96,-307.97 967.98,-334.66 983.93,-353.59"/>
<polygon fill="#6e7781" stroke="#6e7781" points="981.68,-354.72 988.04,-358.52 985.44,-351.58 981.68,-354.72"/>
</g>
<!-- L27&#45;&gt;L26 -->
<g id="edge66" class="edge">
<title>L27&#45;&gt;L26</title>
<path fill="none" stroke="#6e7781" d="M835.84,-252.3C835.84,-260.53 835.84,-270.52 835.84,-279.58"/>
<polygon fill="#6e7781" stroke="#6e7781" points="833.39,-279.38 835.84,-286.38 838.29,-279.38 833.39,-279.38"/>
</g>
<!-- L28 -->
<g id="node29" class="node">
<title>L28</title>
<path fill="#ffe8b3" stroke="#7a5a0a" d="M607.39,-36C607.39,-36 524.29,-36 524.29,-36 518.29,-36 512.29,-30 512.29,-24 512.29,-24 512.29,-12 512.29,-12 512.29,-6 518.29,0 524.29,0 524.29,0 607.39,0 607.39,0 613.39,0 619.39,-6 619.39,-12 619.39,-12 619.39,-24 619.39,-24 619.39,-30 613.39,-36 607.39,-36"/>
<text text-anchor="middle" x="565.84" y="-19.75" font-family="Helvetica,sans-Serif" font-size="10.00">Layer 28</text>
<text text-anchor="middle" x="565.84" y="-8.5" font-family="Helvetica,sans-Serif" font-size="10.00">Cloud &amp; Distributed</text>
</g>
<!-- L28&#45;&gt;L11 -->
<g id="edge67" class="edge">
<title>L28&#45;&gt;L11</title>
<path fill="none" stroke="#6e7781" d="M619.79,-21.03C761.57,-27.82 1133.84,-55.67 1133.84,-161 1133.84,-161 1133.84,-161 1133.84,-235 1133.84,-289.15 1081.74,-331.48 1043.25,-355.36"/>
<polygon fill="#6e7781" stroke="#6e7781" points="1042.25,-353.1 1037.53,-358.82 1044.79,-357.29 1042.25,-353.1"/>
</g>
<!-- L28&#45;&gt;L14 -->
<g id="edge68" class="edge">
<title>L28&#45;&gt;L14</title>
<path fill="none" stroke="#6e7781" d="M512.16,-21.43C475.98,-26.2 430.66,-38.95 406.84,-72 359.69,-137.41 419.43,-235.95 452.12,-281"/>
<polygon fill="#6e7781" stroke="#6e7781" points="450.08,-282.36 456.22,-286.54 454.02,-279.45 450.08,-282.36"/>
</g>
<!-- L28&#45;&gt;L18 -->
<g id="edge69" class="edge">
<title>L28&#45;&gt;L18</title>
<path fill="none" stroke="#6e7781" d="M584.88,-36.16C594.02,-45.7 604.01,-58.38 608.84,-72 614.19,-87.08 615.65,-93.52 608.84,-108 603.09,-120.22 593,-130.58 582.5,-138.82"/>
<polygon fill="#6e7781" stroke="#6e7781" points="581.33,-136.64 577.16,-142.77 584.25,-140.58 581.33,-136.64"/>
</g>
<!-- L28&#45;&gt;L20 -->
<g id="edge70" class="edge">
<title>L28&#45;&gt;L20</title>
<path fill="none" stroke="#6e7781" d="M565.84,-36.3C565.84,-44.53 565.84,-54.52 565.84,-63.58"/>
<polygon fill="#6e7781" stroke="#6e7781" points="563.39,-63.38 565.84,-70.38 568.29,-63.38 563.39,-63.38"/>
</g>
<!-- L28&#45;&gt;L21 -->
<g id="edge71" class="edge">
<title>L28&#45;&gt;L21</title>
<path fill="none" stroke="#6e7781" d="M512.05,-32.4C473.34,-42.4 420.01,-56.88 373.84,-72 308.43,-93.41 234.42,-122.39 187.46,-141.37"/>
<polygon fill="#6e7781" stroke="#6e7781" points="186.56,-139.1 181,-144 188.4,-143.64 186.56,-139.1"/>
</g>
</g>
</svg>
